<?xml version="1.0" encoding="UTF-8"?>
<svg version="1.1" xmlns="http://www.w3.org/2000/svg" width="204" height="204">
<path d="M0 0 C1.44793371 -0.00271378 2.89586604 -0.00627688 4.34379578 -0.01062012 C8.25692514 -0.01969958 12.16994847 -0.01621851 16.08307958 -0.00986195 C20.187749 -0.00477984 24.29240967 -0.00949944 28.39707947 -0.01263428 C35.2875226 -0.01626708 42.17792277 -0.01149241 49.06835938 -0.00195312 C57.02435148 0.00893443 64.98024109 0.00540091 72.93623072 -0.00560594 C79.77976578 -0.01469321 86.62327006 -0.01595718 93.46680921 -0.0107286 C97.54867605 -0.00761737 101.63049477 -0.0071763 105.71235847 -0.01380157 C109.54966194 -0.01959554 113.3868337 -0.01554076 117.224123 -0.00401306 C118.62894981 -0.00137761 120.03378777 -0.00211245 121.43861008 -0.00653839 C138.13864852 -0.05428612 138.13864852 -0.05428612 143.42944336 4.88378906 C145.35274669 7.38469787 145.90524007 9.35116703 146.36694336 12.44628906 C146.67215375 14.51828209 146.67215375 14.51828209 147.61694336 16.25878906 C149.85607788 17.31197882 151.88828557 17.80447501 154.32788086 18.20019531 C157.88135717 19.84352651 159.25163906 22.74224388 160.61694336 26.25878906 C161.17278761 29.79809204 161.15416887 33.27937666 161.11865234 36.85644531 C161.12675682 38.42119095 161.12675682 38.42119095 161.13502502 40.01754761 C161.14749251 43.45242015 161.1310336 46.8864513 161.11303711 50.32128906 C161.11319214 52.71590214 161.11468183 55.11051547 161.1174469 57.50512695 C161.11883002 62.51850506 161.10628695 67.53159679 161.08349609 72.54492188 C161.05511219 78.96416153 161.05785018 85.38292546 161.0705862 91.80220032 C161.07754833 96.74536181 161.0697479 101.68841377 161.05732918 106.63156128 C161.0528199 108.99819519 161.05247329 111.36484087 161.05639458 113.73147583 C161.05931193 117.0416058 161.04277377 120.35108515 161.02099609 123.66113281 C161.02774857 125.12170609 161.02774857 125.12170609 161.03463745 126.61178589 C160.96034336 133.42440714 160.22801994 138.61843491 155.24365234 143.65869141 C149.75283125 146.08123206 144.52968927 145.86925772 138.58959961 145.86035156 C136.6961808 145.87320694 136.6961808 145.87320694 134.76451111 145.88632202 C132.09862316 145.89779343 129.43428824 145.90070112 126.76855469 145.89013672 C123.36744769 145.87854862 119.96851973 145.91241849 116.56777287 145.95882607 C113.30423318 145.99552671 110.04080831 145.98792745 106.77709961 145.98535156 C105.56337173 146.00377106 104.34964386 146.02219055 103.09913635 146.04116821 C96.91548936 145.97367265 92.6757969 145.67008878 88.07615662 141.32699585 C85.87526959 138.20758238 84.32425962 134.67342159 82.61694336 131.25878906 C66.44694336 131.25878906 50.27694336 131.25878906 33.61694336 131.25878906 C32.29694336 134.22878906 30.97694336 137.19878906 29.61694336 140.25878906 C25.46327757 144.21466125 22.89365569 145.37970264 17.25268555 145.43579102 C15.57018707 145.45504387 15.57018707 145.45504387 13.85369873 145.47468567 C12.02720795 145.48576607 12.02720795 145.48576607 10.16381836 145.49707031 C8.29164642 145.50917793 8.29164642 145.50917793 6.38165283 145.52153015 C3.73527302 145.53538203 1.08901824 145.54639476 -1.55737305 145.55395508 C-4.93796753 145.56499979 -8.31790016 145.59937568 -11.69826126 145.63912678 C-14.93166885 145.67165391 -18.16513539 145.67607768 -21.39868164 145.68457031 C-23.21302704 145.71083244 -23.21302704 145.71083244 -25.06402588 145.73762512 C-35.87982937 145.70972855 -35.87982937 145.70972855 -40.38305664 141.25878906 C-43.88580071 135.86791312 -43.8160455 131.09417127 -43.78710938 124.88232422 C-43.79397263 123.85066635 -43.80083588 122.81900848 -43.8079071 121.75608826 C-43.82617526 118.3532018 -43.82233709 114.95077644 -43.81665039 111.54785156 C-43.82121249 109.17662405 -43.82651815 106.80539786 -43.83253479 104.43417358 C-43.8414662 99.46615221 -43.83904267 94.49829158 -43.82910156 89.53027344 C-43.8176179 83.17269596 -43.83781462 76.81567439 -43.8670187 70.45816994 C-43.88539119 65.56129446 -43.88508599 60.6645519 -43.87938118 55.7676506 C-43.87922806 53.42415971 -43.88526434 51.08065974 -43.89767265 48.73720169 C-43.91259828 45.45579729 -43.90189261 42.175416 -43.88476562 38.89404297 C-43.89443359 37.93170242 -43.90410156 36.96936188 -43.9140625 35.9778595 C-43.84913667 30.0185456 -42.98015668 25.15354623 -39.38305664 20.25878906 C-36.61602026 18.47174473 -34.55362586 17.40729411 -31.28930664 16.99316406 C-30.34571289 16.62964844 -30.34571289 16.62964844 -29.38305664 16.25878906 C-28.38377668 14.07340631 -28.38377668 14.07340631 -27.88305664 11.44628906 C-26.04668509 4.63519671 -26.04668509 4.63519671 -22.38305664 2.25878906 C-14.99533626 -0.19402455 -7.71656814 -0.02434966 0 0 Z " fill="#DE9440" transform="translate(43.383056640625,28.7412109375)"/>
<path d="M0 0 C1.44793371 -0.00271378 2.89586604 -0.00627688 4.34379578 -0.01062012 C8.25692514 -0.01969958 12.16994847 -0.01621851 16.08307958 -0.00986195 C20.187749 -0.00477984 24.29240967 -0.00949944 28.39707947 -0.01263428 C35.2875226 -0.01626708 42.17792277 -0.01149241 49.06835938 -0.00195312 C57.02435148 0.00893443 64.98024109 0.00540091 72.93623072 -0.00560594 C79.77976578 -0.01469321 86.62327006 -0.01595718 93.46680921 -0.0107286 C97.54867605 -0.00761737 101.63049477 -0.0071763 105.71235847 -0.01380157 C109.54966194 -0.01959554 113.3868337 -0.01554076 117.224123 -0.00401306 C118.62894981 -0.00137761 120.03378777 -0.00211245 121.43861008 -0.00653839 C137.89988215 -0.05360345 137.89988215 -0.05360345 143.55444336 4.75878906 C145.61694336 8.25878906 145.61694336 8.25878906 145.61694336 18.25878906 C88.52694336 18.25878906 31.43694336 18.25878906 -27.38305664 18.25878906 C-27.38305664 8.25878906 -27.38305664 8.25878906 -25.38305664 4.75878906 C-18.26602357 -1.17207183 -8.78838568 -0.02773178 0 0 Z " fill="#914D04" transform="translate(43.383056640625,28.7412109375)"/>
<path d="M0 0 C1.9718309 1.20724341 3.65182029 2.41781197 5.35546875 3.9765625 C5.9175 4.48574219 6.47953125 4.99492188 7.05859375 5.51953125 C8.35546875 6.9765625 8.35546875 6.9765625 8.35546875 8.9765625 C9.01546875 8.9765625 9.67546875 8.9765625 10.35546875 8.9765625 C13.29053297 16.31422306 13.02406741 22.53191262 10.328125 29.8046875 C7.9848977 35.03695409 4.90746081 39.657863 -0.3671875 42.3125 C-7.32591619 44.34163186 -15.19784861 44.20681486 -21.70703125 40.9140625 C-27.30307376 37.2423097 -30.54711165 32.26882129 -32.64453125 25.9765625 C-33.92448966 14.08485585 -33.92448966 14.08485585 -30.76953125 9.1640625 C-30.06828125 8.4421875 -29.36703125 7.7203125 -28.64453125 6.9765625 C-27.98453125 6.9765625 -27.32453125 6.9765625 -26.64453125 6.9765625 C-26.36609375 6.1103125 -26.36609375 6.1103125 -26.08203125 5.2265625 C-20.80944375 -3.02618316 -8.39480437 -3.24880169 0 0 Z " fill="#904D03" transform="translate(66.64453125,89.0234375)"/>
<path d="M0 0 C1.21171875 -0.01417969 2.4234375 -0.02835937 3.671875 -0.04296875 C7.21245618 0.18508178 9.95689355 0.90965348 13.25 2.1875 C13.25 2.8475 13.25 3.5075 13.25 4.1875 C13.8275 4.414375 14.405 4.64125 15 4.875 C19.03357297 7.22791757 20.86979487 10.17995642 22.5 14.5 C24.32819295 23.48861534 23.09977481 29.82902087 18.125 37.4375 C12.95645168 42.38132883 7.77306855 44.39916816 0.625 44.625 C-7.09376944 44.28098799 -12.11640835 41.59925151 -17.3046875 35.9921875 C-21.85155157 30.31475183 -21.29748951 23.11324228 -20.75 16.1875 C-19.87264724 10.55146215 -17.62986159 7.77817786 -13.1875 4.25 C-8.434444 0.82374124 -5.93195268 0.03128667 0 0 Z " fill="#8E4C02" transform="translate(146.75,87.8125)"/>
<path d="M0 0 C6.635466 3.33904606 9.27689476 9.6189769 12.01171875 16.16796875 C12.26775879 16.78003174 12.52379883 17.39209473 12.78759766 18.02270508 C17.94921875 30.43392321 17.94921875 30.43392321 17.94921875 34.29296875 C18.60921875 34.29296875 19.26921875 34.29296875 19.94921875 34.29296875 C19.94921875 34.95296875 19.94921875 35.61296875 19.94921875 36.29296875 C3.11921875 36.29296875 -13.71078125 36.29296875 -31.05078125 36.29296875 C-22.88463553 6.35043445 -22.88463553 6.35043445 -14.1875 0.19921875 C-9.40019151 -1.83123019 -4.87512049 -1.68075583 0 0 Z " fill="#8C4C05" transform="translate(108.05078125,122.70703125)"/>
<path d="M0 0 C1.44793371 -0.00271378 2.89586604 -0.00627688 4.34379578 -0.01062012 C8.25692514 -0.01969958 12.16994847 -0.01621851 16.08307958 -0.00986195 C20.187749 -0.00477984 24.29240967 -0.00949944 28.39707947 -0.01263428 C35.2875226 -0.01626708 42.17792277 -0.01149241 49.06835938 -0.00195312 C57.02435148 0.00893443 64.98024109 0.00540091 72.93623072 -0.00560594 C79.77976578 -0.01469321 86.62327006 -0.01595718 93.46680921 -0.0107286 C97.54867605 -0.00761737 101.63049477 -0.0071763 105.71235847 -0.01380157 C109.54966194 -0.01959554 113.3868337 -0.01554076 117.224123 -0.00401306 C118.62894981 -0.00137761 120.03378777 -0.00211245 121.43861008 -0.00653839 C137.96428191 -0.05378758 137.96428191 -0.05378758 143.05444336 4.38378906 C143.57006836 5.00253906 144.08569336 5.62128906 144.61694336 6.25878906 C144.28694336 6.91878906 143.95694336 7.57878906 143.61694336 8.25878906 C143.01881836 7.61941406 142.42069336 6.98003906 141.80444336 6.32128906 C138.60360552 3.30335625 136.04323932 3.1336585 131.82214355 3.13180542 C130.83365921 3.1289856 129.84517487 3.12616577 128.82673645 3.1232605 C127.74236801 3.12528473 126.65799957 3.12730896 125.54077148 3.12939453 C123.82491096 3.12676605 123.82491096 3.12676605 122.0743866 3.12408447 C118.26564034 3.11966153 114.45694016 3.12261168 110.64819336 3.12597656 C107.97863712 3.12530218 105.30908226 3.12433193 102.63952637 3.12307739 C97.01366685 3.12125366 91.38782042 3.1236589 85.76196289 3.12841797 C80.05589943 3.13319073 74.34986219 3.13329341 68.64379883 3.12841797 C31.60638794 3.04609218 31.60638794 3.04609218 -5.42601013 3.53079605 C-6.89642704 3.56252967 -8.36694945 3.58975652 -9.83753967 3.61205673 C-11.7807453 3.64364365 -13.72356648 3.69679642 -15.66625977 3.75146484 C-17.23591492 3.78954758 -17.23591492 3.78954758 -18.83728027 3.82839966 C-21.75811356 4.32219625 -22.65888025 4.88998934 -24.38305664 7.25878906 C-24.71305664 8.24878906 -25.04305664 9.23878906 -25.38305664 10.25878906 C-26.04305664 10.25878906 -26.70305664 10.25878906 -27.38305664 10.25878906 C-25.28628245 4.29104713 -25.28628245 4.29104713 -22.38305664 2.25878906 C-14.99298907 -0.18874094 -7.71722245 -0.02435172 0 0 Z " fill="#D6C39C" transform="translate(43.383056640625,28.7412109375)"/>
<path d="M0 0 C2.75 0.0625 2.75 0.0625 6 1 C10.33284358 6.77162735 10.56708728 11.56763817 10.48583984 18.62939453 C10.48963654 19.67577087 10.49343323 20.72214722 10.49734497 21.80023193 C10.50472963 25.24473436 10.48339902 28.68838557 10.4609375 32.1328125 C10.45855207 34.53221538 10.45764796 36.93162016 10.4581604 39.33102417 C10.45503611 44.35280089 10.43849684 49.37429136 10.41162109 54.39599609 C10.37760547 60.83330021 10.36999381 67.27029055 10.37151146 73.70767403 C10.37096774 78.65932206 10.36000072 83.61090149 10.34550858 88.5625267 C10.33914481 90.93639482 10.33520266 93.3102707 10.33372116 95.68414688 C10.32938586 98.99936429 10.31188048 102.31424867 10.29052734 105.62939453 C10.29143372 106.6103006 10.29234009 107.59120667 10.29327393 108.60183716 C10.2503477 113.15860523 10.18808281 116.87309069 8 121 C7.34 121 6.68 121 6 121 C6.00553076 120.41192975 6.01106152 119.8238595 6.01675987 119.21796894 C6.14930596 104.90433556 6.24857336 90.59075696 6.31087303 76.27664661 C6.34180226 69.3543728 6.38396366 62.4325088 6.45263672 55.51049805 C6.51886181 48.83204696 6.55369251 42.15410983 6.56926346 35.475317 C6.58036174 32.9255369 6.60203395 30.37578048 6.63438034 27.82618141 C6.67785022 24.25836177 6.68393762 20.69230883 6.68115234 17.12426758 C6.702724 16.06690903 6.72429565 15.00955048 6.746521 13.92015076 C6.8375464 8.72894348 6.8375464 8.72894348 4.61845779 4.23987389 C2.81174983 2.68762926 2.81174983 2.68762926 0 1 C0 0.67 0 0.34 0 0 Z " fill="#D39C60" transform="translate(194,47)"/>
<path d="M0 0 C1.3977267 -0.0009336 2.7954534 -0.00187712 4.19318008 -0.00283051 C4.88724716 -0.00329927 5.58131424 -0.00376803 6.29641366 -0.004251 C12.00518581 -0.00932573 17.71384059 -0.02956011 23.42256486 -0.05249143 C28.99443167 -0.07408257 34.56624548 -0.08419244 40.13815367 -0.08553195 C43.43826232 -0.08657457 46.73815032 -0.09385125 50.03822327 -0.11035156 C53.68328721 -0.12733933 57.32787819 -0.12555422 60.97296524 -0.11904144 C62.58873207 -0.13286362 62.58873207 -0.13286362 64.23714066 -0.14696503 C73.12255074 -0.09704319 73.12255074 -0.09704319 77.2761879 3.23740387 C78.0393129 3.64990387 78.8024379 4.06240387 79.5886879 4.48740387 C81.2761879 6.23740387 81.2761879 6.23740387 81.5261879 9.92490387 C81.4436879 11.01802887 81.3611879 12.11115387 81.2761879 13.23740387 C80.2861879 12.24740387 80.2861879 12.24740387 79.2761879 11.23740387 C78.2861879 11.23740387 77.2961879 11.23740387 76.2761879 11.23740387 C76.0596254 9.81427887 76.0596254 9.81427887 75.8386879 8.36240387 C75.44683391 5.34395447 75.44683391 5.34395447 74.2761879 3.23740387 C22.4661879 3.23740387 -29.3438121 3.23740387 -82.7238121 3.23740387 C-83.3838121 4.55740387 -84.0438121 5.87740387 -84.7238121 7.23740387 C-85.3838121 7.23740387 -86.0438121 7.23740387 -86.7238121 7.23740387 C-86.7238121 7.89740387 -86.7238121 8.55740387 -86.7238121 9.23740387 C-87.7138121 9.89740387 -88.7038121 10.55740387 -89.7238121 11.23740387 C-90.3838121 12.22740387 -91.0438121 13.21740387 -91.7238121 14.23740387 C-91.7238121 12.25740387 -91.7238121 10.27740387 -91.7238121 8.23740387 C-91.0638121 8.23740387 -90.4038121 8.23740387 -89.7238121 8.23740387 C-89.6206871 7.63927887 -89.5175621 7.04115387 -89.4113121 6.42490387 C-88.58958165 3.81030697 -87.89327305 2.9048616 -85.7238121 1.23740387 C-83.17605209 0.80899811 -83.17605209 0.80899811 -80.0026207 0.73447418 C-78.14161224 0.68308289 -78.14161224 0.68308289 -76.24300766 0.63065338 C-74.82776665 0.60819672 -73.41251305 0.5865237 -71.9972496 0.56552887 C-70.47171543 0.5331182 -68.94619286 0.5001573 -67.420681 0.46671295 C-44.95214435 0.01909105 -22.47244268 0.01497908 0 0 Z " fill="#8A4F0A" transform="translate(107.72381210327148,30.762596130371094)"/>
<path d="M0 0 C1.32 0.33 2.64 0.66 4 1 C3.01 1 2.02 1 1 1 C0.5978125 1.8353125 0.5978125 1.8353125 0.1875 2.6875 C-1 5 -1 5 -2.5509491 7.00486755 C-4.67423724 11.39362243 -4.41037891 15.41954076 -4.37231445 20.23461914 C-4.37596512 21.26280258 -4.37961578 22.29098602 -4.38337708 23.35032654 C-4.39147627 26.74543832 -4.37787822 30.14007193 -4.36328125 33.53515625 C-4.36276261 35.89497375 -4.36328046 38.25479169 -4.36479187 40.61460876 C-4.36470218 45.55832373 -4.35427774 50.50187552 -4.33618164 55.44555664 C-4.31348234 61.78660197 -4.312953 68.12740913 -4.31969929 74.46848392 C-4.32303833 79.34030784 -4.31641056 84.21207732 -4.30657005 89.08389091 C-4.3027176 91.4223038 -4.30157002 93.76072274 -4.3031559 96.09913826 C-4.30352617 99.36446836 -4.2909171 102.62949136 -4.2746582 105.89477539 C-4.27713562 106.86371735 -4.27961304 107.8326593 -4.28216553 108.83096313 C-4.27508072 109.72113632 -4.26799591 110.61130951 -4.26069641 111.52845764 C-4.25864354 112.29995683 -4.25659067 113.07145601 -4.25447559 113.86633396 C-3.96147866 116.32298451 -3.29928259 117.9017053 -2 120 C3.48992862 123.98805754 9.50543372 123.43390505 16.00390625 123.3984375 C17.15994858 123.40130768 18.31599091 123.40417786 19.50706482 123.40713501 C21.94538871 123.40917229 24.38372906 123.40366604 26.82202148 123.39111328 C30.55294305 123.37504117 34.28278368 123.39098189 38.01367188 123.41015625 C40.38541906 123.40817405 42.75716556 123.40433085 45.12890625 123.3984375 C46.2435878 123.40451019 47.35826935 123.41058289 48.50672913 123.4168396 C49.54808517 123.40738312 50.58944122 123.39792664 51.66235352 123.38818359 C52.57469254 123.38579681 53.48703156 123.38341003 54.42701721 123.38095093 C57.51267437 122.92409441 59.39982819 121.67460006 62 120 C62.66 120 63.32 120 64 120 C63.06061016 122.34847459 62.4259345 123.72535515 60.27133179 125.11465454 C57.52297562 126.18593997 55.3582174 126.26771326 52.40869141 126.29052734 C51.28717682 126.30328705 50.16566223 126.31604675 49.01016235 126.32919312 C47.8028244 126.33141876 46.59548645 126.33364441 45.3515625 126.3359375 C44.10627777 126.3425943 42.86099304 126.3492511 41.57797241 126.35610962 C38.94343777 126.36623618 36.30931581 126.37179182 33.67480469 126.37060547 C30.97824332 126.37044274 28.28235988 126.38435399 25.5859375 126.41162109 C21.69510127 126.44826424 17.80505406 126.45807839 13.9140625 126.4609375 C12.71077301 126.47530853 11.50748352 126.48967957 10.26773071 126.50448608 C-0.48577167 126.44581613 -0.48577167 126.44581613 -5 122 C-5.98274508 119.11662511 -6.13450057 116.42791082 -6.16062927 113.39678955 C-6.1706749 112.47729523 -6.18072052 111.5578009 -6.19107056 110.61044312 C-6.19690155 109.60881134 -6.20273254 108.60717957 -6.20874023 107.57519531 C-6.21852402 106.51456879 -6.2283078 105.45394226 -6.23838806 104.36117554 C-6.26830968 100.85017142 -6.28971755 97.33920526 -6.30859375 93.828125 C-6.31516558 92.62819664 -6.3217374 91.42826828 -6.32850838 90.19197845 C-6.36108634 83.84153929 -6.3855422 77.49111681 -6.4050293 71.140625 C-6.42284854 65.88712166 -6.45768239 60.63415442 -6.50756836 55.38085938 C-6.56775774 49.03492592 -6.5985033 42.68948992 -6.60820198 36.34328461 C-6.61675873 33.92717449 -6.63558199 31.51107775 -6.6649456 29.09513092 C-6.70387327 25.71029256 -6.70489226 22.32739204 -6.69702148 18.94238281 C-6.71702209 17.94884796 -6.73702271 16.95531311 -6.75762939 15.93167114 C-6.68482295 8.94051262 -4.7883808 5.07580185 0 0 Z " fill="#C39359" transform="translate(8,48)"/>
<path d="M0 0 C0.33 0.99 0.66 1.98 1 3 C-0.5778125 3.0309375 -0.5778125 3.0309375 -2.1875 3.0625 C-6.37638664 4.09255409 -7.63155305 5.25302729 -9.98274803 8.79396248 C-11.95097177 13.06230067 -11.64889276 17.45524938 -11.56762695 22.07592773 C-11.56835709 23.16934982 -11.56908722 24.26277191 -11.56983948 25.389328 C-11.56636806 28.98792876 -11.52752515 32.5852203 -11.48828125 36.18359375 C-11.47895161 38.68464959 -11.47183621 41.18571458 -11.46684265 43.68678284 C-11.44973083 49.58707532 -11.4103625 55.48688775 -11.3600952 61.38698393 C-11.29858701 68.76767173 -11.2718409 76.14841817 -11.24414062 83.52929688 C-11.19057484 96.68643452 -11.10624204 109.84318765 -11 123 C-13 122 -13 122 -14 119 C-14.09671313 117.54603219 -14.13914531 116.08809435 -14.14717102 114.63093567 C-14.15432632 113.73805847 -14.16148163 112.84518127 -14.16885376 111.92524719 C-14.17154266 110.94807236 -14.17423157 109.97089752 -14.17700195 108.96411133 C-14.18357315 107.93289154 -14.19014435 106.90167175 -14.19691467 105.83920288 C-14.21665481 102.42014495 -14.22831251 99.00113098 -14.23828125 95.58203125 C-14.24439454 93.83040963 -14.24439454 93.83040963 -14.25063133 92.04340172 C-14.27149608 85.86153718 -14.28579553 79.67969487 -14.29516602 73.49780273 C-14.30622538 67.1166501 -14.34061913 60.73584666 -14.38033772 54.35481739 C-14.40650132 49.44509743 -14.4148577 44.53546065 -14.41844749 39.62567711 C-14.42331483 37.27379691 -14.43493293 34.92192047 -14.45348549 32.57010841 C-14.47786834 29.27407927 -14.4769129 25.97895332 -14.4699707 22.68286133 C-14.48918579 21.23228081 -14.48918579 21.23228081 -14.50878906 19.75239563 C-14.4630318 13.77574725 -13.61344752 8.90698487 -10 4 C-6.78838898 1.92583455 -3.7470274 0.72058219 0 0 Z " fill="#ECD2AE" transform="translate(14,45)"/>
<path d="M0 0 C15.95083266 -0.0700939 31.90161534 -0.12298999 47.85256481 -0.15543652 C55.25893999 -0.17090272 62.66521946 -0.19198743 70.0715332 -0.22631836 C76.5271908 -0.25622838 82.98277908 -0.2755768 89.43850404 -0.28226548 C92.85650706 -0.28617506 96.27431177 -0.29535772 99.69225121 -0.31719017 C103.50874042 -0.33891346 107.3248165 -0.34196898 111.14135742 -0.34057617 C112.27352188 -0.351362 113.40568634 -0.36214783 114.57215881 -0.3732605 C115.61397308 -0.36913651 116.65578735 -0.36501251 117.72917175 -0.36076355 C119.08282475 -0.36491162 119.08282475 -0.36491162 120.46382427 -0.36914349 C123.55451885 0.0807109 125.4257207 1.27027661 128 3 C128.763125 3.4125 129.52625 3.825 130.3125 4.25 C132 6 132 6 132.25 9.6875 C132.1675 10.780625 132.085 11.87375 132 13 C131.01 12.01 131.01 12.01 130 11 C129.01 11 128.02 11 127 11 C126.7834375 9.576875 126.7834375 9.576875 126.5625 8.125 C126.17064601 5.1065506 126.17064601 5.1065506 125 3 C121.98252206 1.93654494 119.1036122 1.86486025 115.925354 1.84178162 C114.90174271 1.8319928 113.87813141 1.82220398 112.82350159 1.81211853 C111.1479142 1.80348534 111.1479142 1.80348534 109.43847656 1.79467773 C108.25771042 1.78477814 107.07694427 1.77487854 105.86039734 1.76467896 C102.62727892 1.7385169 99.3941656 1.71664423 96.16100407 1.69667697 C92.7803846 1.67478534 89.39980962 1.64741222 86.01922607 1.62062073 C79.61971836 1.57073675 73.22018589 1.52578202 66.82062984 1.48259836 C59.53406839 1.43318924 52.24755159 1.37828476 44.96103334 1.32291877 C29.97406386 1.20916468 14.9870523 1.10231137 0 1 C0 0.67 0 0.34 0 0 Z " fill="#895B20" transform="translate(57,31)"/>
<path d="M0 0 C0.99 0 1.98 0 3 0 C2.06316174 2.34209564 1.42471975 3.72410219 -0.71896362 5.11663818 C-3.52207582 6.20218084 -5.74045971 6.25407853 -8.74658203 6.25878906 C-9.90102814 6.26509338 -11.05547424 6.27139771 -12.24490356 6.27789307 C-13.48666351 6.2738446 -14.72842346 6.26979614 -16.0078125 6.265625 C-17.9232637 6.26849518 -17.9232637 6.26849518 -19.87741089 6.27142334 C-22.57580135 6.27278424 -25.27382932 6.27009894 -27.97216797 6.26074219 C-31.43361988 6.24932498 -34.89476241 6.25592571 -38.35620308 6.26788712 C-41.65675077 6.27684022 -44.95726078 6.27057808 -48.2578125 6.265625 C-49.50362091 6.26967346 -50.74942932 6.27372192 -52.0329895 6.27789307 C-53.18113129 6.27158875 -54.32927307 6.26528442 -55.51220703 6.25878906 C-57.03299362 6.25640228 -57.03299362 6.25640228 -58.58450317 6.25396729 C-61 6 -61 6 -63 4 C-60.69 4 -58.38 4 -56 4 C-56 3.67 -56 3.34 -56 3 C-55.38247864 2.98969254 -54.76495728 2.97938507 -54.12872314 2.96876526 C-47.70484982 2.86063254 -41.28111484 2.74603989 -34.85742188 2.62768555 C-32.45966485 2.58435845 -30.0618774 2.54268178 -27.6640625 2.50268555 C-24.21865674 2.44492937 -20.77340375 2.38124994 -17.328125 2.31640625 C-15.71855927 2.29133751 -15.71855927 2.29133751 -14.07647705 2.26576233 C-13.07574158 2.24581711 -12.0750061 2.22587189 -11.04394531 2.20532227 C-10.16458313 2.18977798 -9.28522095 2.1742337 -8.37921143 2.15821838 C-6.13042229 2.00867313 -4.16009502 1.62461828 -2 1 C-2 1.66 -2 2.32 -2 3 C-1.34 3 -0.68 3 0 3 C0 2.01 0 1.02 0 0 Z " fill="#CA995A" transform="translate(198,168)"/>
<path d="M0 0 C2.75 0.0625 2.75 0.0625 6 1 C10.3606508 6.79342645 10.55766762 11.61729395 10.45410156 18.70874023 C10.45468567 19.76314804 10.45526978 20.81755585 10.45587158 21.90391541 C10.45309552 25.37248197 10.42202481 28.84017818 10.390625 32.30859375 C10.38316095 34.71997101 10.37746879 37.13135436 10.37347412 39.54273987 C10.35823093 45.8771145 10.31895979 52.21111995 10.2746582 58.54534912 C10.23367752 65.01390591 10.21545709 71.48252258 10.1953125 77.95117188 C10.15246481 90.63427173 10.08500214 103.31711619 10 116 C9.67 116 9.34 116 9 116 C9 80.69 9 45.38 9 9 C8.34 9 7.68 9 7 9 C5.98648336 7.34151823 4.98879205 5.67334039 4 4 C2.70420353 2.63015802 1.38007251 1.2848951 0 0 Z " fill="#FFE2B3" transform="translate(194,47)"/>
<path d="M0 0 C-1.75 3.875 -1.75 3.875 -4 5 C-5.8179454 5.0909215 -7.63925945 5.11753467 -9.45947266 5.11352539 C-10.60050446 5.11344986 -11.74153625 5.11337433 -12.91714478 5.11329651 C-14.15362762 5.10813522 -15.39011047 5.10297394 -16.6640625 5.09765625 C-17.92640717 5.0962413 -19.18875183 5.09482635 -20.48934937 5.09336853 C-23.84638299 5.08871078 -27.203349 5.07972408 -30.56036377 5.06866455 C-33.98554906 5.0584377 -37.41074134 5.05386818 -40.8359375 5.04882812 C-47.55731043 5.03778238 -54.27865131 5.02103194 -61 5 C-61 4.67 -61 4.34 -61 4 C-60.33458694 3.99413376 -59.66917389 3.98826752 -58.9835968 3.98222351 C-52.05657423 3.91827904 -45.13001579 3.83385609 -38.20336914 3.73754883 C-35.61847046 3.70429889 -33.03349916 3.67626723 -30.44848633 3.65356445 C-26.73226991 3.62002073 -23.01671899 3.56770272 -19.30078125 3.51171875 C-18.14540359 3.50532883 -16.99002594 3.4989389 -15.79963684 3.49235535 C-14.71889389 3.47256119 -13.63815094 3.45276703 -12.5246582 3.43237305 C-11.57645706 3.42126999 -10.62825592 3.41016693 -9.65132141 3.39872742 C-5.99273287 2.84851892 -3.5709717 0 0 0 Z " fill="#AF7D3B" transform="translate(72,168)"/>
<path d="M0 0 C1.30324219 -0.02513672 1.30324219 -0.02513672 2.6328125 -0.05078125 C3.37273438 0.06910156 4.11265625 0.18898438 4.875 0.3125 C5.535 1.3025 6.195 2.2925 6.875 3.3125 C5.225 3.3125 3.575 3.3125 1.875 3.3125 C1.875 3.9725 1.875 4.6325 1.875 5.3125 C0.555 5.3125 -0.765 5.3125 -2.125 5.3125 C-2.125 4.6525 -2.125 3.9925 -2.125 3.3125 C-4.435 3.6425 -6.745 3.9725 -9.125 4.3125 C-9.125 3.6525 -9.125 2.9925 -9.125 2.3125 C-5.98876336 0.48181303 -3.61954451 0.01620692 0 0 Z " fill="#824401" transform="translate(56.125,87.6875)"/>
<path d="M0 0 C4.00152021 1.37194978 7.07180003 2.90447432 10 6 C10.3125 9.75 10.3125 9.75 10 13 C9.34 12.34 8.68 11.68 8 11 C7.01 11 6.02 11 5 11 C4.855625 10.05125 4.71125 9.1025 4.5625 8.125 C4.17064601 5.1065506 4.17064601 5.1065506 3 3 C2.01 2.67 1.02 2.34 0 2 C0 1.34 0 0.68 0 0 Z " fill="#966A30" transform="translate(179,31)"/>
<path d="M0 0 C1.4540625 0.0309375 1.4540625 0.0309375 2.9375 0.0625 C3.2675 1.0525 3.5975 2.0425 3.9375 3.0625 C3.6075 3.7225 3.2775 4.3825 2.9375 5.0625 C1.6175 4.7325 0.2975 4.4025 -1.0625 4.0625 C-0.4025 3.7325 0.2575 3.4025 0.9375 3.0625 C-0.10470703 3.30806641 -0.10470703 3.30806641 -1.16796875 3.55859375 C-4.2977816 4.10345996 -7.20048083 4.15988483 -10.375 4.125 C-11.44363281 4.11597656 -12.51226562 4.10695312 -13.61328125 4.09765625 C-14.42152344 4.08605469 -15.22976562 4.07445312 -16.0625 4.0625 C-16.0625 3.7325 -16.0625 3.4025 -16.0625 3.0625 C-15.20785156 2.92972656 -14.35320313 2.79695312 -13.47265625 2.66015625 C-12.36792969 2.48355469 -11.26320313 2.30695313 -10.125 2.125 C-9.02285156 1.95097656 -7.92070313 1.77695313 -6.78515625 1.59765625 C-3.47844362 0.94769982 -3.48054302 0.07103149 0 0 Z " fill="#E59D52" transform="translate(68.0625,129.9375)"/>
<path d="M0 0 C2 3 2 3 3 6 C1 9 1 9 -1.625 9.6875 C-2.40875 9.790625 -3.1925 9.89375 -4 10 C-3.71872579 8.51882199 -3.42466268 7.04006751 -3.125 5.5625 C-2.96257812 4.73878906 -2.80015625 3.91507813 -2.6328125 3.06640625 C-2.42398438 2.38449219 -2.21515625 1.70257813 -2 1 C-1.34 0.67 -0.68 0.34 0 0 Z " fill="#834504" transform="translate(82,147)"/>
<path d="M0 0 C0.66 0.33 1.32 0.66 2 1 C1.67 2.65 1.34 4.3 1 6 C0.34 6 -0.32 6 -1 6 C-1 6.66 -1 7.32 -1 8 C-1.99 8.66 -2.98 9.32 -4 10 C-4.66 10.99 -5.32 11.98 -6 13 C-6 11.02 -6 9.04 -6 7 C-5.34 7 -4.68 7 -4 7 C-3.896875 6.401875 -3.79375 5.80375 -3.6875 5.1875 C-2.91123545 2.71756736 -1.92911079 1.67748765 0 0 Z " fill="#88561F" transform="translate(22,32)"/>
<path d="M0 0 C0.37125 0.598125 0.7425 1.19625 1.125 1.8125 C3.42561008 4.49654509 5.79751065 5.5766714 9 7 C9 7.33 9 7.66 9 8 C10.65 8.33 12.3 8.66 14 9 C14 9.33 14 9.66 14 10 C9.32228635 10.32260094 6.79905781 10.37099113 2.5 8.375 C0 6 0 6 -0.375 2.75 C-0.25125 1.8425 -0.1275 0.935 0 0 Z " fill="#C89B6B" transform="translate(3,164)"/>
<path d="M0 0 C0.99 0.33 1.98 0.66 3 1 C3 1.66 3 2.32 3 3 C3.99 3.33 4.98 3.66 6 4 C6.66666667 5.66666667 7.33333333 7.33333333 8 9 C8.99 9.33 9.98 9.66 11 10 C10.67 10.66 10.34 11.32 10 12 C9.01 12 8.02 12 7 12 C3.50087357 8.39152587 1.80495003 4.60262259 0 0 Z " fill="#D3B27D" transform="translate(126,159)"/>
<path d="M0 0 C-1.75 3.875 -1.75 3.875 -4 5 C-6.71760108 5.07181821 -9.40859388 5.09299506 -12.125 5.0625 C-12.87910156 5.05798828 -13.63320313 5.05347656 -14.41015625 5.04882812 C-16.27347127 5.03703499 -18.13674555 5.01909942 -20 5 C-20 4.67 -20 4.34 -20 4 C-19.11957031 3.96261719 -18.23914062 3.92523438 -17.33203125 3.88671875 C-15.58986328 3.78810547 -15.58986328 3.78810547 -13.8125 3.6875 C-12.66394531 3.62949219 -11.51539063 3.57148438 -10.33203125 3.51171875 C-6.49000415 2.92167707 -3.66455269 0 0 0 Z " fill="#B6844B" transform="translate(72,168)"/>
<path d="M0 0 C2.75 0.0625 2.75 0.0625 6 1 C7.88788987 3.11621873 9.08181939 5.32148586 10 8 C9.75 10.4375 9.75 10.4375 9 12 C9 11.01 9 10.02 9 9 C8.34 9 7.68 9 7 9 C5.98648336 7.34151823 4.98879205 5.67334039 4 4 C2.70420353 2.63015802 1.38007251 1.2848951 0 0 Z " fill="#F5DFBD" transform="translate(194,47)"/>
<path d="M0 0 C-0.886875 0.5775 -1.77375 1.155 -2.6875 1.75 C-5.59042244 3.68068476 -8.30768649 5.78280064 -11 8 C-11.66 7.34 -12.32 6.68 -13 6 C-12.01 5.67 -11.02 5.34 -10 5 C-9.505 4.175 -9.01 3.35 -8.5 2.5 C-6.16935515 -1.38440808 -3.99127049 -1.23867015 0 0 Z " fill="#D9984A" transform="translate(98,122)"/>
<path d="M0 0 C3.86933162 0.57323431 6.15222057 2.38953552 9 5 C9 5.66 9 6.32 9 7 C4.71193127 6.52354792 2.73352513 5.34097516 0 2 C0 1.34 0 0.68 0 0 Z " fill="#DF9B50" transform="translate(129,125)"/>
<path d="M0 0 C0.33 0 0.66 0 1 0 C1.33 4.62 1.66 9.24 2 14 C1.34 14 0.68 14 0 14 C-0.33 14.66 -0.66 15.32 -1 16 C-1.33 14.35 -1.66 12.7 -2 11 C-1.67 11 -1.34 11 -1 11 C-0.67 7.37 -0.34 3.74 0 0 Z " fill="#C8863B" transform="translate(125,104)"/>
<path d="M0 0 C0.33 0.99 0.66 1.98 1 3 C-0.051875 3.103125 -1.10375 3.20625 -2.1875 3.3125 C-5.87430754 3.97733415 -7.96638599 4.88566296 -11 7 C-10 4 -10 4 -7.1875 2.375 C-4.74199982 1.32007836 -2.59764224 0.49954659 0 0 Z " fill="#EDD7B3" transform="translate(14,45)"/>
<path d="M0 0 C2.41805039 2.41805039 3.52856112 4.92917103 5 8 C5.33 8.66 5.66 9.32 6 10 C4.68 10 3.36 10 2 10 C-0.09350689 6.5980513 -0.17942163 3.94727588 0 0 Z " fill="#D49044" transform="translate(34,115)"/>
<path d="M0 0 C0.33 0.99 0.66 1.98 1 3 C0.67 3.66 0.34 4.32 0 5 C-0.66 5 -1.32 5 -2 5 C-2 5.66 -2 6.32 -2 7 C-2.99 7 -3.98 7 -5 7 C-3.75023244 3.34683329 -3.32901247 2.21934164 0 0 Z " fill="#DC984D" transform="translate(40,91)"/>
<path d="M0 0 C0.99 0 1.98 0 3 0 C3.66 1.98 4.32 3.96 5 6 C5.66 6 6.32 6 7 6 C7.33 6.99 7.66 7.98 8 9 C6.125 8.8125 6.125 8.8125 4 8 C2.875 5.5 2.875 5.5 2 3 C1.34 2.67 0.68 2.34 0 2 C0 1.34 0 0.68 0 0 Z " fill="#D6994F" transform="translate(129,160)"/>
<path d="M0 0 C0.99 0 1.98 0 3 0 C2.00233891 2.49415272 1.31383315 3.78740335 -0.9375 5.3125 C-3 6 -3 6 -6 5 C-5.34 5 -4.68 5 -4 5 C-3.67 4.01 -3.34 3.02 -3 2 C-2.01 2.33 -1.02 2.66 0 3 C0 2.01 0 1.02 0 0 Z " fill="#C9A57B" transform="translate(198,168)"/>
<path d="M0 0 C0 0.66 0 1.32 0 2 C-1.75 3.2890625 -1.75 3.2890625 -4 4.625 C-4.7425 5.07101563 -5.485 5.51703125 -6.25 5.9765625 C-6.8275 6.31429687 -7.405 6.65203125 -8 7 C-4.63016529 0 -4.63016529 0 0 0 Z " fill="#874404" transform="translate(138,91)"/>
<path d="M0 0 C0.66 0.33 1.32 0.66 2 1 C0.02 5.455 0.02 5.455 -2 10 C-3 6 -3 6 -2 3 C-1.34 3 -0.68 3 0 3 C0 2.01 0 1.02 0 0 Z " fill="#D0AC7E" transform="translate(75,159)"/>
<path d="M0 0 C0.33 1.32 0.66 2.64 1 4 C1.66 4 2.32 4 3 4 C2.67 5.98 2.34 7.96 2 10 C1.34 10 0.68 10 0 10 C0 6.7 0 3.4 0 0 Z " fill="#7D3E00" transform="translate(35,106)"/>
<path d="M0 0 C0.99 0 1.98 0 3 0 C3.33 2.31 3.66 4.62 4 7 C3.01 7.495 3.01 7.495 2 8 C1.34 5.36 0.68 2.72 0 0 Z " fill="#DB974B" transform="translate(76,96)"/>
</svg>
