<?xml version="1.0" standalone="no"?>
<!DOCTYPE svg PUBLIC "-//W3C//DTD SVG 20010904//EN"
 "http://www.w3.org/TR/2001/REC-SVG-20010904/DTD/svg10.dtd">
<svg version="1.0" xmlns="http://www.w3.org/2000/svg"
 width="512.000000pt" height="512.000000pt" viewBox="0 0 512.000000 512.000000"
 preserveAspectRatio="xMidYMid meet">
<metadata>
Created by potrace 1.16, written by Peter Selinger 2001-2019
</metadata>
<g transform="translate(0.000000,512.000000) scale(0.100000,-0.100000)"
fill="#000000" stroke="none">
<path d="M2412 3822 c-70 -23 -115 -61 -146 -125 l-26 -53 2 -929 c3 -1040 -2
-961 75 -1038 77 -78 -40 -72 1353 -75 843 -2 1257 0 1281 8 49 14 123 80 148
133 21 43 21 51 21 977 0 922 0 934 -21 976 -23 49 -86 110 -135 130 -28 12
-230 14 -1266 13 -1129 0 -1237 -2 -1286 -17z m2050 -319 c17 -15 18 -53 18
-781 0 -698 -1 -767 -17 -784 -15 -17 -58 -18 -941 -18 -847 0 -927 1 -944 17
-17 15 -18 53 -18 781 0 698 1 767 17 784 15 17 58 18 941 18 847 0 927 -1
944 -17z"/>
<path d="M143 2859 c-49 -24 -109 -87 -129 -135 -12 -28 -14 -200 -14 -1046 0
-1001 0 -1012 21 -1054 23 -49 86 -110 135 -130 27 -11 139 -14 622 -14 677 0
661 -2 743 80 84 84 80 18 77 1146 -3 942 -4 991 -22 1024 -26 49 -74 98 -121
123 -40 22 -46 22 -655 25 -607 2 -616 2 -657 -19z m504 -351 c41 -84 125
-125 205 -99 42 14 76 48 103 104 l20 42 134 3 c114 2 137 0 152 -14 18 -16
19 -51 19 -862 0 -773 -1 -847 -17 -864 -15 -17 -43 -18 -461 -18 -400 0 -447
2 -464 17 -17 15 -18 55 -18 861 0 778 1 847 17 864 15 17 31 18 152 16 l136
-3 22 -47z"/>
</g>
</svg>
