<?xml version="1.0" standalone="no"?>
<!DOCTYPE svg PUBLIC "-//W3C//DTD SVG 20010904//EN"
 "http://www.w3.org/TR/2001/REC-SVG-20010904/DTD/svg10.dtd">
<svg version="1.0" xmlns="http://www.w3.org/2000/svg"
 width="1275.000000pt" height="1651.000000pt" viewBox="0 0 1275.000000 1651.000000"
 preserveAspectRatio="xMidYMid meet">
<metadata>
Created by potrace 1.16, written by Peter Selinger 2001-2019
</metadata>
<g transform="translate(0.000000,1651.000000) scale(0.100000,-0.100000)"
fill="#faf4f4" stroke="none">
<path d="M1950 15237 l0 -74 37 -1 c42 -2 53 9 53 53 0 43 -13 59 -44 53 -22
-4 -26 -2 -26 18 0 13 -4 24 -10 24 -6 0 -10 -31 -10 -73z m65 -23 c0 -32 -3
-39 -20 -39 -24 0 -33 48 -14 71 20 24 34 10 34 -32z"/>
<path d="M1212 15291 c-26 -16 -9 -53 28 -66 38 -13 45 -32 18 -48 -13 -9 -21
-7 -36 6 -21 19 -38 11 -21 -10 15 -18 74 -17 89 2 18 22 5 44 -35 61 -40 16
-47 44 -12 44 13 0 28 -5 35 -12 9 -9 12 -8 12 4 0 25 -50 37 -78 19z"/>
<path d="M1353 15283 c-3 -10 -14 -40 -25 -66 -21 -55 -21 -57 -9 -57 5 0 13
9 16 20 4 14 15 20 35 20 20 0 31 -6 35 -20 3 -11 11 -20 16 -20 11 0 9 9 -20
85 -20 53 -37 67 -48 38z m31 -35 c9 -35 8 -38 -14 -38 -11 0 -20 3 -20 8 0
19 13 52 20 52 4 0 10 -10 14 -22z"/>
<path d="M1450 15230 c0 -40 4 -70 10 -70 6 0 10 11 10 24 0 18 7 25 29 29 17
4 35 16 42 28 10 20 8 25 -11 41 -12 10 -35 18 -51 18 l-29 0 0 -70z m73 38
c7 -23 -4 -38 -29 -38 -19 0 -24 5 -24 25 0 20 5 25 24 25 13 0 26 -6 29 -12z"/>
<path d="M1710 15231 l0 -71 40 0 c22 0 40 5 40 10 0 6 -13 10 -30 10 -30 0
-30 1 -30 54 0 30 -4 58 -10 61 -6 4 -10 -20 -10 -64z"/>
<path d="M1835 15259 c-4 -6 -4 -13 0 -17 3 -3 10 0 15 7 8 14 40 9 40 -7 0
-4 -15 -12 -32 -17 -26 -8 -33 -15 -33 -35 0 -24 3 -25 55 -26 30 -1 49 1 43
3 -7 3 -13 20 -13 38 0 18 -3 40 -6 49 -7 18 -59 22 -69 5z m55 -58 c0 -14
-28 -33 -40 -26 -20 12 -10 35 15 35 14 0 25 -4 25 -9z"/>
<path d="M2087 15264 c-18 -18 -5 -43 28 -54 19 -6 35 -16 35 -21 0 -17 -32
-23 -52 -10 -16 10 -19 10 -16 -1 3 -7 19 -13 39 -13 28 0 35 4 37 23 3 18 -3
25 -27 33 -17 6 -31 17 -31 25 0 17 31 18 49 2 11 -11 13 -10 9 2 -5 16 -59
26 -71 14z"/>
</g>
</svg>
